<svg width="16" height="16" viewBox="0 0 16 16" xmlns="http://www.w3.org/2000/svg"><path d="M15.666 3.749C16 4.997 16 7.599 16 7.599s0 2.604-.334 3.852a2.004 2.004 0 0 1-1.415 1.415C13.003 13.2 8 13.2 8 13.2s-5.003 0-6.251-.334A2.004 2.004 0 0 1 .334 11.45C0 10.203 0 7.6 0 7.6s0-2.603.334-3.851A2.004 2.004 0 0 1 1.75 2.334C2.997 2 7.999 2 7.999 2s5.004 0 6.252.334c.689.184 1.23.726 1.415 1.415zM6.4 9.999L10.557 7.6 6.4 5.2V10z" fill="#FFF" fill-rule="evenodd"/></svg>174-1.941-.372a3.92 3.92 0 0 1-1.417-.922A3.92 3.92 0 0 1 .42 13.24c-.198-.509-.333-1.09-.372-1.941C.01 10.447 0 10.175 0 8.003s.01-2.445.048-3.298c.039-.851.174-1.432.372-1.941a3.92 3.92 0 0 1 .922-1.417A3.92 3.92 0 0 1 2.76.425C3.268.227 3.849.092 4.7.053 5.553.014 5.825.005 7.997.005zm0 1.441c-2.135 0-2.388.008-3.231.047-.78.035-1.203.166-1.485.275-.374.145-.64.318-.92.598-.28.28-.453.547-.598.92-.11.282-.24.705-.275 1.485-.039.843-.047 1.096-.047 3.232 0 2.135.008 2.388.047 3.231.035.78.165 1.203.275 1.485.145.374.318.64.598.92.28.28.546.453.92.598.282.11.705.24 1.485.275.843.039 1.096.047 3.231.047 2.136 0 2.389-.008 3.232-.047.78-.035 1.203-.165 1.485-.275.373-.145.64-.318.92-.598.28-.28.453-.546.598-.92.11-.282.24-.705.275-1.485.039-.843.047-1.096.047-3.231 0-2.136-.008-2.389-.047-3.232-.035-.78-.166-1.203-.275-1.485a2.478 2.478 0 0 0-.598-.92 2.478 2.478 0 0 0-.92-.598c-.282-.11-.705-.24-1.485-.275-.843-.039-1.096-.047-3.232-.047zm0 2.45a4.107 4.107 0 1 1 0 8.213 4.107 4.107 0 0 1 0-8.213zm0 6.772a2.666 2.666 0 1 0 0-5.331 2.666 2.666 0 0 0 0 5.331zm5.23-6.935a.96.96 0 1 1-1.92 0 .96.96 0 0 1 1.92 0z" fill="#FFF" fill-rule="evenodd"/></svg>5z" fill="#000" fill-rule="evenodd"/></svg>
